<svg xmlns="http://www.w3.org/2000/svg" viewBox="0 0 396.52 193.64"><defs><style>.cls-1,.cls-2,.cls-4,.cls-5,.cls-6,.cls-7,.cls-9{fill:none;}.cls-1,.cls-4,.cls-6{stroke:#231815;}.cls-1{stroke-linejoin:round;}.cls-2{stroke:#e60012;}.cls-2,.cls-4,.cls-6,.cls-7,.cls-9{stroke-miterlimit:10;}.cls-3{fill:#e60012;}.cls-4{stroke-width:2px;}.cls-7{stroke:#2ea7e0;}.cls-8{fill:#2ea7e0;}.cls-9{stroke:#8fc31f;}.cls-10{fill:#8fc31f;}.cls-11,.cls-12,.cls-13{fill:#231815;}.cls-12,.cls-13{font-size:12px;}.cls-12{font-family:AdobeSongStd-Light-GBpc-EUC-H, Adobe Song Std;}.cls-13{font-family:TimesNewRomanPSMT, Times New Roman;}</style></defs><g id="图层_2" data-name="图层 2"><g id="图层_1-2" data-name="图层 1"><line class="cls-1" x1="336.16" y1="105.57" x2="367.12" y2="74.61"/><line class="cls-2" x1="336.4" y1="105.32" x2="351.84" y2="89.89"/><path class="cls-3" d="M350.82,90.91l-3.28-.8,0-.12,4.64-2,4.24-2.71c-.91,1.41-1.81,2.83-2.71,4.24l-2,4.64-.11,0Z"/><line class="cls-4" x1="54.05" y1="70.83" x2="78.1" y2="46.78"/><line class="cls-4" x1="90.13" y1="58.81" x2="66.08" y2="82.86"/><path class="cls-4" d="M90.13,58.81c1.11-1.11-.69-4.7-4-8s-6.91-5.12-8-4"/><ellipse class="cls-4" cx="60.06" cy="76.85" rx="2.83" ry="8.5" transform="translate(-36.75 64.98) rotate(-45)"/><line class="cls-4" x1="143.81" y1="70.79" x2="167.87" y2="46.73"/><line class="cls-4" x1="179.89" y1="58.76" x2="155.84" y2="82.81"/><path class="cls-4" d="M179.89,58.76c1.11-1.11-.68-4.7-4-8s-6.92-5.11-8-4"/><ellipse class="cls-4" cx="149.83" cy="76.8" rx="2.83" ry="8.5" transform="translate(-10.42 128.44) rotate(-45)"/><line class="cls-4" x1="36.64" y1="157.52" x2="36.64" y2="123.51"/><line class="cls-4" x1="53.64" y1="123.51" x2="53.64" y2="157.52"/><ellipse class="cls-4" cx="45.14" cy="123.51" rx="8.5" ry="2.83"/><path class="cls-4" d="M36.64,157.52c0,1.57,3.8,2.84,8.5,2.84s8.5-1.27,8.5-2.84"/><line class="cls-4" x1="285.83" y1="117.16" x2="285.83" y2="83.14"/><line class="cls-4" x1="302.84" y1="83.14" x2="302.84" y2="117.16"/><ellipse class="cls-4" cx="294.33" cy="83.14" rx="8.5" ry="2.83"/><path class="cls-4" d="M285.83,117.16c0,1.57,3.81,2.84,8.5,2.84s8.51-1.27,8.51-2.84"/><polyline class="cls-1" points="60.06 76.85 45.14 91.77 45.14 123.71"/><polyline class="cls-1" points="175.84 50.79 193.02 33.61 103.3 33.61 86.12 50.79"/><line class="cls-4" x1="245.13" y1="70.79" x2="269.18" y2="46.73"/><line class="cls-4" x1="281.21" y1="58.76" x2="257.16" y2="82.81"/><path class="cls-4" d="M281.21,58.76c1.11-1.11-.69-4.7-4-8s-6.91-5.11-8-4"/><ellipse class="cls-4" cx="251.14" cy="76.8" rx="2.83" ry="8.5" transform="translate(19.25 200.08) rotate(-45)"/><line class="cls-4" x1="304.09" y1="125.62" x2="328.14" y2="101.56"/><line class="cls-4" x1="340.16" y1="113.59" x2="316.11" y2="137.64"/><path class="cls-4" d="M340.16,113.59c1.11-1.11-.68-4.7-4-8s-6.91-5.11-8-4"/><ellipse class="cls-4" cx="310.1" cy="131.63" rx="2.83" ry="8.5" transform="translate(-2.25 257.83) rotate(-45)"/><polyline class="cls-1" points="251.14 76.8 236.22 91.72 134.9 91.77 149.83 76.85"/><polyline class="cls-1" points="388.14 61.88 375.69 74.32 375.14 74.32 359.74 74.32 359.12 74.32 372.46 60.98"/><line class="cls-5" x1="36.43" y1="178.86" x2="42" y2="172.84"/><line class="cls-6" x1="30.86" y1="184.87" x2="36.43" y2="178.86"/><line class="cls-6" x1="28.56" y1="178.86" x2="44.31" y2="178.86"/><line class="cls-5" x1="52.19" y1="178.86" x2="57.76" y2="172.84"/><line class="cls-6" x1="46.62" y1="184.87" x2="52.19" y2="178.86"/><line class="cls-6" x1="44.31" y1="178.86" x2="60.06" y2="178.86"/><polyline class="cls-1" points="277.15 50.79 294.33 33.61 294.33 82.81"/><polyline class="cls-1" points="294.33 120 294.33 146.31 309.26 131.38"/><line class="cls-6" x1="45.14" y1="160.36" x2="45.14" y2="179.03"/><line class="cls-2" x1="45.14" y1="178.86" x2="45.14" y2="157.03"/><path class="cls-3" d="M45.14,158.47l-2.88,1.75-.07-.1,1.87-4.7,1.08-4.91,1.08,4.91,1.87,4.7-.05.1Z"/><line class="cls-7" x1="45.12" y1="178.86" x2="66.94" y2="178.86"/><path class="cls-8" d="M65.51,178.86,63.75,176l.1-.06,4.7,1.86,4.91,1.09-4.91,1.08-4.7,1.86-.1-.05Z"/><line class="cls-2" x1="342.19" y1="31.24" x2="364.01" y2="31.24"/><path class="cls-3" d="M362.58,31.24l-1.75-2.88.09-.07,4.7,1.87,4.92,1.08-4.92,1.08-4.7,1.87-.09,0Z"/><line class="cls-9" x1="342.19" y1="19.59" x2="364.01" y2="19.59"/><path class="cls-10" d="M362.58,19.59l-1.75-2.88.09-.07,4.7,1.87,4.92,1.08-4.92,1.08-4.7,1.87-.09-.05Z"/><line class="cls-7" x1="342.19" y1="7.94" x2="364.01" y2="7.94"/><path class="cls-8" d="M362.58,7.94l-1.75-2.88.09-.07,4.7,1.87,4.92,1.08L365.62,9l-4.7,1.87-.09-.05Z"/><line class="cls-9" x1="45.12" y1="178.8" x2="60.55" y2="163.37"/><path class="cls-10" d="M59.53,164.39l-3.27-.8,0-.12,4.64-2,4.24-2.71c-.9,1.41-1.8,2.83-2.71,4.24l-2,4.64-.11,0Z"/><line class="cls-2" x1="45.14" y1="91.77" x2="45.14" y2="69.95"/><path class="cls-3" d="M45.14,71.38l-2.88,1.76-.07-.1,1.87-4.7,1.08-4.92,1.08,4.92L48.09,73l-.05.1Z"/><line class="cls-7" x1="45.14" y1="91.77" x2="66.96" y2="91.77"/><path class="cls-8" d="M65.53,91.77l-1.75-2.88.09-.07,4.7,1.87,4.92,1.08-4.92,1.08-4.7,1.87-.09,0Z"/><line class="cls-9" x1="45.14" y1="91.72" x2="60.57" y2="76.29"/><path class="cls-10" d="M59.56,77.3l-3.28-.8,0-.11,4.65-2,4.23-2.71q-1.35,2.11-2.71,4.23l-2,4.65-.1,0Z"/><line class="cls-9" x1="45.14" y1="26.49" x2="45.14" y2="48.31"/><path class="cls-10" d="M45.14,46.88,48,45.12l.07.1-1.87,4.7-1.08,4.91-1.08-4.91-1.87-4.7.05-.1Z"/><line class="cls-7" x1="45.14" y1="26.63" x2="66.96" y2="26.63"/><path class="cls-8" d="M65.53,26.63l-1.75-2.88.09-.06,4.7,1.86,4.92,1.08-4.92,1.08-4.7,1.87-.09,0Z"/><line class="cls-2" x1="45.14" y1="26.58" x2="60.57" y2="11.15"/><path class="cls-3" d="M59.56,12.17l-3.28-.8,0-.12,4.65-2,4.23-2.71-2.71,4.24-2,4.64-.1,0Z"/><line class="cls-2" x1="294.33" y1="146.3" x2="294.33" y2="168.12"/><path class="cls-3" d="M294.33,166.69l2.89-1.76.06.1-1.87,4.7-1.08,4.91-1.08-4.91-1.86-4.7,0-.1Z"/><line class="cls-7" x1="294.33" y1="146.44" x2="316.16" y2="146.44"/><path class="cls-8" d="M314.72,146.44,313,143.56l.1-.06,4.7,1.86,4.91,1.08-4.91,1.08-4.7,1.87-.1,0Z"/><line class="cls-9" x1="294.33" y1="146.44" x2="278.9" y2="161.88"/><path class="cls-10" d="M279.92,160.86l3.27.8,0,.11-4.64,2-4.24,2.71,2.71-4.24,2-4.64.11,0Z"/><line class="cls-9" x1="294.33" y1="33.52" x2="294.33" y2="55.34"/><path class="cls-10" d="M294.33,53.91l2.89-1.76.06.1L295.41,57l-1.08,4.92L293.25,57l-1.86-4.7,0-.1Z"/><line class="cls-7" x1="294.33" y1="33.66" x2="316.16" y2="33.66"/><path class="cls-8" d="M314.72,33.66,313,30.78l.1-.06,4.7,1.86,4.91,1.08-4.91,1.09-4.7,1.86-.1,0Z"/><line class="cls-2" x1="294.33" y1="33.61" x2="309.77" y2="18.18"/><path class="cls-3" d="M308.75,19.2l-3.28-.8,0-.12,4.64-2,4.24-2.71q-1.36,2.12-2.71,4.24l-2,4.64-.1,0Z"/><line class="cls-9" x1="367.26" y1="74.22" x2="367.26" y2="96.05"/><path class="cls-10" d="M367.26,94.61l2.88-1.75.07.1-1.87,4.7-1.08,4.91-1.08-4.91L364.31,93l.05-.1Z"/><line class="cls-7" x1="367.26" y1="74.37" x2="389.09" y2="74.37"/><path class="cls-8" d="M387.65,74.37l-1.75-2.88.1-.07,4.7,1.87,4.91,1.08-4.91,1.08L386,77.32l-.1,0Z"/><line class="cls-2" x1="367.26" y1="74.32" x2="382.69" y2="58.88"/><path class="cls-3" d="M381.68,59.9l-3.28-.8,0-.11,4.65-2,4.24-2.71-2.71,4.24-2,4.64-.1,0Z"/><line class="cls-9" x1="134.9" y1="91.65" x2="134.9" y2="113.47"/><path class="cls-10" d="M134.9,112l2.89-1.76.06.1-1.86,4.7q-.56,2.46-1.09,4.92l-1.08-4.92-1.86-4.7,0-.1Z"/><line class="cls-7" x1="134.9" y1="91.79" x2="156.73" y2="91.79"/><path class="cls-8" d="M155.29,91.79l-1.75-2.88.1-.06,4.7,1.86,4.91,1.08-4.91,1.09-4.7,1.86-.1,0Z"/><line class="cls-2" x1="134.9" y1="91.74" x2="150.34" y2="76.31"/><path class="cls-3" d="M149.32,77.33l-3.28-.8,0-.12,4.64-2L155,71.7q-1.37,2.11-2.71,4.24l-2,4.64-.11,0Z"/><path class="cls-6" d="M32.43,89.19a43.86,43.86,0,0,1-4.26-57.45"/><polygon class="cls-11" points="29.29 36.34 27.47 32.75 23.62 31.58 32.1 27.23 29.29 36.34"/><text class="cls-12" transform="translate(376.76 11.22)">X轴</text><text class="cls-12" transform="translate(376.92 23.35)">Y轴</text><text class="cls-12" transform="translate(377 35.47)">Z轴</text><text class="cls-13" transform="translate(66.08 168.96)">{0}</text><text class="cls-13" transform="translate(67.74 102.71)">{1}</text><text class="cls-13" transform="translate(28.56 16.56)">{2}</text><text class="cls-13" transform="translate(114.37 88.54)">{3}</text><text class="cls-13" transform="translate(301.79 46.45)">{4}</text><text class="cls-13" transform="translate(269.18 150.69)">{5}</text><text class="cls-13" transform="translate(377.28 90.99)">{7}</text><line class="cls-9" x1="336.37" y1="105.23" x2="336.37" y2="127.05"/><path class="cls-10" d="M336.37,125.62l2.89-1.76.06.1-1.86,4.7c-.36,1.64-.73,3.28-1.09,4.92l-1.08-4.92-1.86-4.7.05-.1Z"/><line class="cls-7" x1="336.37" y1="105.38" x2="358.2" y2="105.38"/><path class="cls-8" d="M356.76,105.38,355,102.49l.1-.06,4.7,1.86,4.91,1.09-4.91,1.08-4.7,1.86-.1,0Z"/><text class="cls-13" transform="translate(339.58 132.4)">{6}</text><line class="cls-1" x1="340.34" y1="183.27" x2="330.32" y2="173.25"/><line class="cls-1" x1="382.38" y1="140.82" x2="372.36" y2="130.8"/><line class="cls-1" x1="339.55" y1="175.04" x2="373.15" y2="141.44"/><polygon class="cls-11" points="344.15 175.67 340.42 174.17 338.92 170.44 335.33 179.26 344.15 175.67"/><polygon class="cls-11" points="373.78 146.05 372.27 142.32 368.54 140.81 377.37 137.22 373.78 146.05"/><line class="cls-1" x1="103.58" y1="21.26" x2="103.58" y2="9.53"/><line class="cls-1" x1="195.29" y1="21.26" x2="195.29" y2="9.53"/><line class="cls-1" x1="109.55" y1="15.4" x2="189.32" y2="15.4"/><polygon class="cls-11" points="112.36 19.1 110.78 15.4 112.36 11.7 103.58 15.4 112.36 19.1"/><polygon class="cls-11" points="186.51 19.1 188.09 15.4 186.51 11.7 195.29 15.4 186.51 19.1"/><line class="cls-1" x1="294.33" y1="21.26" x2="294.33" y2="9.53"/><line class="cls-1" x1="200.95" y1="15.4" x2="288.36" y2="15.4"/><polygon class="cls-11" points="203.76 19.1 202.18 15.4 203.76 11.7 194.98 15.4 203.76 19.1"/><polygon class="cls-11" points="285.55 19.1 287.13 15.4 285.55 11.7 294.33 15.4 285.55 19.1"/><line class="cls-1" x1="23.56" y1="178.76" x2="9.38" y2="178.76"/><line class="cls-1" x1="22.38" y1="90.44" x2="10.56" y2="90.44"/><line class="cls-1" x1="16.47" y1="172.79" x2="16.47" y2="96.41"/><polygon class="cls-11" points="20.17 169.98 16.47 171.56 12.77 169.98 16.47 178.76 20.17 169.98"/><polygon class="cls-11" points="20.17 99.22 16.47 97.65 12.77 99.22 16.47 90.44 20.17 99.22"/><line class="cls-1" x1="231.46" y1="85.61" x2="221.44" y2="75.59"/><line class="cls-1" x1="287.83" y1="27.57" x2="279.48" y2="19.22"/><line class="cls-1" x1="230.67" y1="76.38" x2="279.43" y2="27.62"/><polygon class="cls-11" points="235.27 77.01 231.54 75.51 230.04 71.78 226.45 80.6 235.27 77.01"/><polygon class="cls-11" points="280.06 32.22 278.56 28.49 274.83 26.98 283.65 23.4 280.06 32.22"/><line class="cls-1" x1="233.46" y1="183.27" x2="223.44" y2="193.29"/><line class="cls-1" x1="232.63" y1="95.78" x2="224.27" y2="104.14"/><line class="cls-1" x1="228.45" y1="182.31" x2="228.45" y2="105.93"/><polygon class="cls-11" points="232.15 179.5 228.45 181.07 224.75 179.5 228.45 188.28 232.15 179.5"/><polygon class="cls-11" points="232.15 108.74 228.45 107.17 224.75 108.74 228.45 99.96 232.15 108.74"/><text class="cls-12" transform="translate(10.56 147.9) rotate(-90)">89.459</text><text class="cls-12" transform="translate(237.6 61.87) rotate(-45)">109.15</text><text class="cls-12" transform="translate(222.95 158.36) rotate(-90)">94.65</text><text class="cls-12" transform="translate(346.48 163.7) rotate(-45)">82.3</text><text class="cls-12" transform="translate(138.57 10.56)">425</text><text class="cls-12" transform="translate(231.1 10.56)">392.25</text></g></g></svg>